<mxfile host="app.diagrams.net" modified="2024-02-01T18:27:25.594Z" agent="Mozilla/5.0 (X11; Linux x86_64) AppleWebKit/537.36 (KHTML, like Gecko) Chrome/121.0.0.0 Safari/537.36" version="23.1.1" etag="gZK9bzciUL4tybugGaHD" type="github">
  <diagram name="Page-1" id="WkffJwSEy9Clum7cv4HR">
    <mxGraphModel>
      <root>
        <mxCell id="0" />
        <mxCell id="1" parent="0" />
      </root>
    </mxGraphModel>
  </diagram>
</mxfile>
